<mxfile host="Electron" agent="Mozilla/5.0 (X11; Linux x86_64) AppleWebKit/537.36 (KHTML, like Gecko) draw.io/26.2.15 Chrome/134.0.6998.205 Electron/35.2.2 Safari/537.36" version="26.2.15">
  <diagram name="Page-1" id="AaJbGva7tN5HBlwT4yJC">
    <mxGraphModel dx="2942" dy="1236" grid="1" gridSize="10" guides="1" tooltips="1" connect="1" arrows="1" fold="1" page="1" pageScale="1" pageWidth="850" pageHeight="1100" math="0" shadow="0">
      <root>
        <mxCell id="0" />
        <mxCell id="1" parent="0" />
        <mxCell id="o4WdhZJdc0iCGKaEjJUX-1" value="" style="shape=card;whiteSpace=wrap;html=1;align=right;" parent="1" vertex="1">
          <mxGeometry x="190" y="280" width="200" height="310" as="geometry" />
        </mxCell>
        <mxCell id="o4WdhZJdc0iCGKaEjJUX-6" value="&lt;b&gt;&lt;font style=&quot;font-size: 15px;&quot;&gt;pipeline.ttl&lt;/font&gt;&lt;/b&gt;" style="text;html=1;align=center;verticalAlign=middle;whiteSpace=wrap;rounded=0;" parent="1" vertex="1">
          <mxGeometry x="310" y="290" width="60" height="30" as="geometry" />
        </mxCell>
        <mxCell id="o4WdhZJdc0iCGKaEjJUX-7" value="&lt;font face=&quot;Courier New&quot;&gt;Imports&lt;/font&gt;" style="rounded=1;whiteSpace=wrap;html=1;fillColor=#fff2cc;strokeColor=#d6b656;" parent="1" vertex="1">
          <mxGeometry x="200" y="330" width="180" height="40" as="geometry" />
        </mxCell>
        <mxCell id="o4WdhZJdc0iCGKaEjJUX-8" value="&lt;font face=&quot;Courier New&quot;&gt;Runners&lt;/font&gt;" style="rounded=1;whiteSpace=wrap;html=1;fillColor=#fff2cc;strokeColor=#d6b656;" parent="1" vertex="1">
          <mxGeometry x="200" y="430" width="180" height="50" as="geometry" />
        </mxCell>
        <mxCell id="o4WdhZJdc0iCGKaEjJUX-9" value="&lt;font face=&quot;Courier New&quot;&gt;Channel definitions&lt;/font&gt;" style="rounded=1;whiteSpace=wrap;html=1;fillColor=#fff2cc;strokeColor=#d6b656;" parent="1" vertex="1">
          <mxGeometry x="200" y="380" width="180" height="40" as="geometry" />
        </mxCell>
        <mxCell id="o4WdhZJdc0iCGKaEjJUX-10" value="&lt;font face=&quot;Courier New&quot;&gt;Processors&lt;/font&gt;" style="rounded=1;whiteSpace=wrap;html=1;fillColor=#fff2cc;strokeColor=#d6b656;" parent="1" vertex="1">
          <mxGeometry x="200" y="490" width="180" height="80" as="geometry" />
        </mxCell>
      </root>
    </mxGraphModel>
  </diagram>
</mxfile>
